<svg xmlns="http://www.w3.org/2000/svg" xmlns:xlink="http://www.w3.org/1999/xlink" width="86" height="109" viewBox="0 0 86 109"><defs><style>.a{fill:#fff;}.b{clip-path:url(#a);}.c{fill:#073a59;}.d{fill:#004876;}.e{fill:#ecb430;}.f{fill:#ffce3a;}</style><clipPath id="a"><rect class="a" width="86" height="109" transform="translate(289 703)"/></clipPath></defs><g class="b" transform="translate(-289 -703)"><g transform="matrix(0.839, 0.545, -0.545, 0.839, -342.835, -1391.922)"><path class="c" d="M1757.7,1491.874l11.644,6.374c1.507,5.755.44,12.852-3.451,19.351a31.036,31.036,0,0,1-2.053,3.014l-11.642-6.373a31.223,31.223,0,0,0,2.053-3.014C1758.138,1504.727,1759.2,1497.629,1757.7,1491.874Z" transform="translate(-11.298 -41.092)"/><path class="d" d="M1768.887,1537.061c.431-.765,1.064-1.064,1.656-.783l4.091,1.942c.578.273,1.045-.831.731-1.724a71.158,71.158,0,0,1-3.539-23.09q0-2.206.11-4.344c.034-.672-.271-1.25-.656-1.25H1761.2c-.339,0-.625.452-.656,1.043q-.119,2.236-.121,4.551c0,10.938,2.067,20.747,5.338,27.422.25.511.7.536.968.058Z" transform="translate(-11.635 -46.917)"/><path class="d" d="M1758.3,1442h9.7c.207,0,.4-.275.545-.75,3.6-12.174,5.905-30.77,5.905-51.607q0-4.119-.117-8.112c-.035-1.185-.355-2.088-.735-2.088h-10.165c-.432,0-.773,1.155-.736,2.5q.1,3.79.106,7.7c0,19.191-1.953,36.478-5.076,48.6C1757.332,1439.757,1757.676,1442,1758.3,1442Z" transform="translate(-10.587 -17.014)"/><g transform="translate(1748.464 1415.854)"><path class="e" d="M1779.366,1443.737l-5.3-6.12a2.186,2.186,0,0,0-1.666-.792h-12.488v6.911Z" transform="translate(-1759.911 -1436.826)"/><path class="e" d="M1759.912,1505.1h12.744a2.219,2.219,0,0,0,1.41-.776l5.314-6.136h-19.468Z" transform="translate(-1759.911 -1459.253)"/><path class="c" d="M1759.912,1455.73H1786.3l-6.938-8.012h-19.454Z" transform="translate(-1759.912 -1440.807)"/><path class="c" d="M1759.912,1485.561v8.011h19.468l6.939-8.011h-26.407Z" transform="translate(-1759.912 -1454.639)"/><path class="e" d="M1792.213,1466.44l-5.278-6.1h-25.3v16h25.313l5.264-6.079A3.008,3.008,0,0,0,1792.213,1466.44Z" transform="translate(-1760.542 -1445.422)"/></g><g transform="translate(1728.59 1415.854)"><path class="d" d="M1746.794,1481.9l-17.518-20.226a3.008,3.008,0,0,1,0-3.826l17.518-20.226a2.129,2.129,0,0,1,3.314,0l17.518,20.226a3.009,3.009,0,0,1,0,3.826l-17.518,20.226A2.129,2.129,0,0,1,1746.794,1481.9Z" transform="translate(-1728.59 -1436.825)"/><g transform="translate(0.001 0)"><path class="f" d="M1734.562,1460.333l-5.285,6.1a3.019,3.019,0,0,0-.123,3.672l5.413,6.238,6.946-8Z" transform="translate(-1728.591 -1445.417)"/><path class="f" d="M1749.533,1494.236h0l5,5.764a2.116,2.116,0,0,0,3.018-.289l5.306-6.126-.241-.278h0l-6.714-7.736-6.946,8Z" transform="translate(-1736.035 -1454.641)"/><path class="f" d="M1783.075,1466.44l-5.279-6.1-4.643,5.35h0l-2.3,2.644,6.949,8.007,5.268-6.082A3.01,3.01,0,0,0,1783.075,1466.44Z" transform="translate(-1744.039 -1445.422)"/><path class="f" d="M1761.633,1442.333l-4.2-4.842a2.121,2.121,0,0,0-3.2.126l-5.287,6.105,6.957,8.016,6.944-8Z" transform="translate(-1736.031 -1436.826)"/><path class="f" d="M1752.066,1464.76h0l-3.1,3.574,5.824,6.711h0l1.121,1.292,6.947-8-6.947-8Z" transform="translate(-1736.037 -1445.417)"/></g></g></g><path class="f" d="M2365.707,1168.631l2.919-1.452-3.126-.922-1.447-2.919-.927,3.127-2.924,1.452,3.131.922,1.457,2.928Z" transform="translate(-2027.255 -428.008)"/><path class="f" d="M2364.278,1167.257l2.161-1.075-2.315-.683-1.072-2.161-.686,2.315-2.165,1.075,2.318.682,1.079,2.168Z" transform="translate(-2058.255 -368.764)"/><path class="f" d="M2392.177,1106.52l4.425-2.2-4.74-1.4-2.2-4.427-1.4,4.743-4.427,2.2,4.743,1.4,2.2,4.427Z" transform="translate(-2087.747 -330.088)"/></g></svg>